<?xml version="1.0" encoding="UTF-8" standalone="no"?>
<!-- Created with Inkscape (http://www.inkscape.org/) -->

<svg
   width="210mm"
   height="297mm"
   viewBox="0 0 210 297"
   version="1.1"
   id="svg5"
   inkscape:version="1.1.1 (eb90963e84, 2021-10-02)"
   sodipodi:docname="icon.svg"
   xmlns:inkscape="http://www.inkscape.org/namespaces/inkscape"
   xmlns:sodipodi="http://sodipodi.sourceforge.net/DTD/sodipodi-0.dtd"
   xmlns="http://www.w3.org/2000/svg"
   xmlns:svg="http://www.w3.org/2000/svg">
  <sodipodi:namedview
     id="namedview7"
     pagecolor="#ffffff"
     bordercolor="#666666"
     borderopacity="1.0"
     inkscape:pageshadow="2"
     inkscape:pageopacity="0.0"
     inkscape:pagecheckerboard="0"
     inkscape:document-units="mm"
     showgrid="false"
     inkscape:zoom="8.1250004"
     inkscape:cx="158.03076"
     inkscape:cy="186.33845"
     inkscape:window-width="1366"
     inkscape:window-height="719"
     inkscape:window-x="0"
     inkscape:window-y="25"
     inkscape:window-maximized="1"
     inkscape:current-layer="layer1" />
  <defs
     id="defs2" />
  <g
     inkscape:label="Camada 1"
     inkscape:groupmode="layer"
     id="layer1">
    <circle
       style="opacity:1;fill:#272727;fill-opacity:0.15;stroke:none;stroke-width:8.693;stroke-miterlimit:4;stroke-dasharray:none;paint-order:markers stroke fill"
       id="circle1076"
       cx="42.058853"
       cy="49.89637"
       r="8.4666662" />
    <circle
       style="fill:#ec008c;fill-opacity:1;stroke:none;stroke-width:8.693;stroke-miterlimit:4;stroke-dasharray:none;paint-order:markers stroke fill"
       id="path846"
       cx="41.825382"
       cy="49.317253"
       r="8.4666662" />
    <g
       style="fill:#ffffff"
       id="g1074"
       transform="matrix(0.00125784,0.26458034,-0.26458034,0.00125784,44.972176,46.111991)">
      <path
         d="M 0,0 H 24 V 24 H 0 Z"
         fill="none"
         id="path1062" />
      <path
         d="M 20,4 H 16.83 L 15,2 H 9 L 7.17,4 H 4 C 2.9,4 2,4.9 2,6 v 12 c 0,1.1 0.9,2 2,2 h 16 c 1.1,0 2,-0.9 2,-2 V 6 C 22,4.9 21.1,4 20,4 Z m 0,14 H 4 V 6 H 8.05 L 9.88,4 h 4.24 l 1.83,2 H 20 Z M 12,7 c -2.76,0 -5,2.24 -5,5 0,2.76 2.24,5 5,5 2.76,0 5,-2.24 5,-5 0,-2.76 -2.24,-5 -5,-5 z m 0,8 c -1.65,0 -3,-1.35 -3,-3 0,-1.65 1.35,-3 3,-3 1.65,0 3,1.35 3,3 0,1.65 -1.35,3 -3,3 z"
         id="path1064" />
    </g>
  </g>
</svg>
